<?xml version="1.0" encoding="UTF-8" standalone="no"?>
<svg
   xmlns:dc="http://purl.org/dc/elements/1.1/"
   xmlns:cc="http://creativecommons.org/ns#"
   xmlns:rdf="http://www.w3.org/1999/02/22-rdf-syntax-ns#"
   xmlns:svg="http://www.w3.org/2000/svg"
   xmlns="http://www.w3.org/2000/svg"
   xmlns:sodipodi="http://sodipodi.sourceforge.net/DTD/sodipodi-0.dtd"
   xmlns:inkscape="http://www.inkscape.org/namespaces/inkscape"
   fill="#FFFFFF"
   height="24"
   viewBox="0 0 24 24"
   width="24"
   id="svg3355"
   version="1.1"
   inkscape:version="0.91 r13725"
   sodipodi:docname="gehen.svg">
  <metadata
     id="metadata3365">
    <rdf:RDF>
      <cc:Work
         rdf:about="">
        <dc:format>image/svg+xml</dc:format>
        <dc:type
           rdf:resource="http://purl.org/dc/dcmitype/StillImage" />
        <dc:title></dc:title>
      </cc:Work>
    </rdf:RDF>
  </metadata>
  <defs
     id="defs3363" />
  <sodipodi:namedview
     pagecolor="#f298ff"
     bordercolor="#666666"
     borderopacity="1"
     objecttolerance="10"
     gridtolerance="10"
     guidetolerance="10"
     inkscape:pageopacity="0"
     inkscape:pageshadow="2"
     inkscape:window-width="1295"
     inkscape:window-height="833"
     id="namedview3361"
     showgrid="false"
     inkscape:zoom="11.350104"
     inkscape:cx="-11.281863"
     inkscape:cy="9.6446709"
     inkscape:window-x="0"
     inkscape:window-y="0"
     inkscape:window-maximized="0"
     inkscape:current-layer="svg3355" />
  <path
     d="M0 0h24v24H0z"
     fill="none"
     id="path3357" />
  <path
     d="m 16.330439,3.0097699 c 1.06043,0 1.926733,0.8390806 1.988281,1.8847657 l -11.0026742,0 0,14.0878894 0.353515,0 0,0.03711 8.6608782,0 0,-0.03711 2,0 0,0.02734 c 0,1.1 -0.9,1.980469 -2,1.980469 l -8.6608782,0 c -1.1,0 -2,-0.880469 -2,-1.980469 l 0,-13.9999991 c 0,-1.11 0.9,-2 2,-2 z"
     id="path3390"
     inkscape:connector-curvature="0"
     sodipodi:nodetypes="sccccccccsssssss" />
  <path
     d="m 17.608145,16 4,-4 -4,-3.9999995 0,2.9999995 -7.180643,0 0,2 6.146745,0 1.033898,0 z"
     id="path3359"
     inkscape:connector-curvature="0"
     sodipodi:nodetypes="ccccccccc" />
</svg>
