<?xml version="1.0" encoding="UTF-8" standalone="no"?>
<svg
   xmlns:dc="http://purl.org/dc/elements/1.1/"
   xmlns:cc="http://creativecommons.org/ns#"
   xmlns:rdf="http://www.w3.org/1999/02/22-rdf-syntax-ns#"
   xmlns:svg="http://www.w3.org/2000/svg"
   xmlns="http://www.w3.org/2000/svg"
   version="1.1"
   id="svg3355"
   width="24"
   viewBox="0 0 24 24"
   height="24"
   fill="#FFFFFF">
  <metadata
     id="metadata3365">
    <rdf:RDF>
      <cc:Work
         rdf:about="">
        <dc:format>image/svg+xml</dc:format>
        <dc:type
           rdf:resource="http://purl.org/dc/dcmitype/StillImage" />
        <dc:title></dc:title>
      </cc:Work>
    </rdf:RDF>
  </metadata>
  <defs
     id="defs3363" />
  <path
     id="path3357"
     fill="none"
     d="M0 0h24v24H0z" />
  <path
     id="path3390"
     d="m 7.6695605,3.0097698 c -1.0604298,0 -1.9267326,0.8390806 -1.9882813,1.8847657 l 11.0026748,0 0,14.0878895 -0.353515,0 0,0.03711 -8.6608785,0 0,-0.03711 -2,0 0,0.02734 c 0,1.1 0.9,1.980469 2,1.980469 l 8.6608785,0 c 1.1,0 2,-0.880469 2,-1.980469 l 0,-13.9999992 c 0,-1.11 -0.9,-2 -2,-2 z" />
  <path
     id="path3359"
     d="m 10.824066,15.912113 4,-4 -4,-3.9999992 0,2.9999992 -7.1806431,0 0,2 6.1467449,0 1.0338982,0 z" />
</svg>
